<?xml version="1.0" standalone="no"?>
<!DOCTYPE svg PUBLIC "-//W3C//DTD SVG 20010904//EN"
 "http://www.w3.org/TR/2001/REC-SVG-20010904/DTD/svg10.dtd">
<svg version="1.0" xmlns="http://www.w3.org/2000/svg"
 width="500.000000pt" height="250.000000pt" viewBox="0 0 500.000000 250.000000"
 preserveAspectRatio="xMidYMid meet">

<g transform="translate(0.000000,250.000000) scale(0.100000,-0.100000)"
fill="#000000" stroke="none">
<path d="M2815 1210 l0 -540 78 0 77 0 0 290 c0 258 2 290 16 290 9 0 23 -8
32 -19 10 -10 71 -67 137 -127 66 -60 122 -111 125 -114 3 -3 79 -73 170 -155
91 -83 167 -153 168 -157 2 -5 55 -8 118 -8 l114 0 -272 242 c-150 133 -299
267 -331 298 l-59 56 69 55 c37 31 169 136 293 234 124 98 229 182 235 187 5
4 -40 8 -101 8 l-110 0 -79 -66 c-44 -37 -102 -85 -130 -109 -233 -197 -367
-305 -380 -305 -13 0 -15 33 -15 240 l0 240 -77 0 -78 0 0 -540z"/>
<path d="M4010 1210 l0 -540 318 0 c245 0 331 4 380 15 167 39 255 134 255
274 1 130 -74 224 -201 251 -58 13 -70 35 -24 46 15 4 43 15 62 24 128 65 160
265 61 374 -70 77 -184 96 -573 96 l-278 0 0 -540z m678 400 c119 -70 104
-243 -27 -303 -42 -19 -64 -21 -271 -21 l-225 -1 -3 178 -2 179 242 -4 c238
-3 244 -4 286 -28z m-8 -457 c108 -50 151 -164 100 -267 -45 -94 -132 -117
-412 -114 l-203 3 -3 190 c-1 104 0 196 3 203 4 11 48 13 237 10 211 -3 237
-6 278 -25z"/>
</g>
</svg>
